# xmcd CD database file
#
# Track frame offsets:
#	150
#	28606
#	57916
#	91872
#	117413
#	143610
#	175949
#	222074
#	237514
#
# Disc length: 3515 seconds
#
# Revision: 0
# Processed by: cddbd v1.4PL0 Copyright (c) Steve Scherf et al.
# Submitted via: CDex 1.50
#
DISCID=760db909
DTITLE=Divers - Couleurs Jazz 1
DYEAR=1985
DGENRE=Jazz
TTITLE0=Chet Baker and Philip Catherine, Jean-Louis Rasinfosse - Crystal bells
TTITLE1=Act Big Band (Félix Simtaine ...) - Pentaprism
TTITLE2=Paolo Randoni trio - Storie vere
TTITLE3=Jean-Pierre Gelber quintet - Dance of the infidels
TTITLE4=Michel Herr trio - Labyrinthe
TTITLE5=Freddie Deronde - Feux follets
TTITLE6=Charles Loos trio (Au Travers) - Tintamarre
TTITLE7=Steve Houben quartet - Blue circumstances
TTITLE8=Jacques Pelzer - Salute to the Band Box
EXTD=YEAR: 1985
EXTT0=
EXTT1=
EXTT2=
EXTT3=
EXTT4=
EXTT5=
EXTT6=
EXTT7=
EXTT8=
PLAYORDER=
